# AST/ASF file generated using VICON BodyLanguage
# -----------------------------------------------
:version 1.10
:name VICON
:units
  mass 1.0
  length 0.45
  angle deg
:documentation
   .ast/.asf automatically generated from VICON data using
   VICON BodyBuilder and BodyLanguage model FoxedUp or BRILLIANT.MOD
:root
   order TX TY TZ RX RY RZ
   axis XYZ
   position 0 0 0  
   orientation 0 0 0 
:bonedata
  begin
     id 1 
     name lhipjoint
     direction 0.610259 -0.730986 0.305356 
     length 2.50941 
     axis 0 0 0  XYZ
  end
  begin
     id 2 
     name lfemur
     direction 0.34202 -0.939693 0  
     length 7.48822  
     axis 0 0 20  XYZ
    dof rx ry rz
    limits (-160.0 20.0)
           (-70.0 70.0)
           (-60.0 70.0)
  end
  begin
     id 3 
     name ltibia
     direction 0.34202 -0.939693 0   
     length 7.60141   
     axis 0 0 20   XYZ
    dof rx
    limits (-10.0 170.0)
  end
  begin
     id 4 
     name lfoot
     direction 0.0673488 -0.185039 0.980421   
     length 2.04049   
     axis -90 7.62852e-016 20   XYZ
    dof rx rz
    limits (-45.0 90.0)
           (-70.0 20.0)
  end
  begin
     id 5 
     name ltoes
     direction 1.5356e-011 -4.21729e-011 1   
     length 1.02897   
     axis -90 7.62852e-016 20   XYZ
    dof rx
    limits (-90.0 20.0)
  end
  begin
     id 6 
     name rhipjoint
     direction -0.57612 -0.754205 0.315056   
     length 2.43216  
     axis 0 0 0  XYZ 
  end
  begin
     id 7 
     name rfemur
     direction -0.34202 -0.939693 0   
     length 7.42799   
     axis 0 0 -20   XYZ
    dof rx ry rz
    limits (-160.0 20.0)
           (-70.0 70.0)
           (-70.0 60.0)
  end
  begin
     id 8 
     name rtibia
     direction -0.34202 -0.939693 0   
     length 7.69484   
     axis 0 0 -20   XYZ
    dof rx
    limits (-10.0 170.0)
 end
 begin
     id 9 
     name rfoot
     direction -0.111837 -0.30727 0.945028   
     length 2.15769  
     axis -90 -7.62852e-016 -20   XYZ
    dof rx rz
    limits (-45.0 90.0)
           (-20.0 70.0)
  end
  begin
     id 10 
     name rtoes
     direction -1.53539e-011 -4.21878e-011 1   
     length 1.07391   
     axis -90 -7.62852e-016 -20   XYZ
    dof rx
    limits (-90.0 20.0)
  end
  begin
     id 11 
     name lowerback
     direction 0.00552624 0.990109 -0.140195   
     length 2.12403   
     axis 0 0 0   XYZ
    dof rx ry rz
    limits (-20.0 45.0)
           (-30.0 30.0)
           (-30.0 30.0)
  end
  begin
     id 12 
     name upperback
     direction 0.00361898 0.999976 -0.00584723   
     length 2.13232   
     axis 0 0 0   XYZ
    dof rx ry rz
    limits (-20.0 45.0)
           (-30.0 30.0)
           (-30.0 30.0)
  end
  begin
     id 13 
     name thorax
     direction -0.000331275 0.998253 0.0590847   
     length 2.17688   
     axis 0 0 0   XYZ
    dof rx ry rz
    limits (-20.0 45.0)
           (-30.0 30.0)
           (-30.0 30.0)
  end
  begin
     id 14 
     name lowerneck
     direction -0.0561561 0.979832 0.19177   
     length 1.64159   
     axis 0 0 0   XYZ
    dof rx ry rz
    limits (-20.0 45.0)
           (-30.0 30.0)
           (-30.0 30.0)
  end
  begin
     id 15 
     name upperneck
     direction 0.0827153 0.979385 -0.184293   
     length 1.68939   
     axis 0 0 0   XYZ
    dof rx ry rz
    limits (-20.0 45.0)
           (-30.0 30.0)
           (-30.0 30.0)
  end
  begin
     id 16
     name head
     direction 0.0278583 0.995936 -0.0856488  
     length 1.70207  
     axis 0 0 0   XYZ
    dof rx ry rz
    limits (-20.0 45.0)
           (-30.0 30.0)
           (-30.0 30.0)
  end
  begin
     id 17 
     name lclavicle
     direction 0.950993 0.301131 -0.0702275  
     length 3.41652  
     axis 0 0 0   XYZ
    dof ry rz
    limits (-20.0 10.0)
           (0.0 20.0)
  end
  begin
     id 18 
     name lhumerus
     direction 1 -4.48981e-011 -3.9662e-029   
     length 5.32955   
     axis 180 -30 -90   XYZ
    dof rx ry rz
    limits (-60.0 90.0)
           (-90.0 90.0)
           (-90.0 90.0)
  end
  begin
     id 19
     name lradius
     direction 1 -4.48925e-011 -9.0549e-027   
     length 3.69232   
     axis 180 -30 -90   XYZ
    dof rx
    limits (-10.0 170.0)
  end
  begin
     id 20
     name lwrist
     direction 1 -4.49007e-011 -1.49005e-026   
     length 1.84616   
     axis 9.0955e-015 90 90   XYZ
    dof ry
    limits (-180.0 0.0)
 end
  begin
     id 21 
     name lhand
     direction 1 -4.49016e-011 -2.98023e-026   
     length 0.536598   
     axis 1.90115e-014 90 90   XYZ
    dof rx rz
    limits (-90.0 90.0)
           (-45.0 45.0)
  end
  begin
     id 22 
     name lfingers
     direction 1 -4.48924e-011 -5.9578e-026   
     length 0.432619   
     axis 3.80223e-014 90 90   XYZ
    dof rx
    limits (0.0 90.0)
  end
  begin
     id 23
     name lthumb
     direction 0.707107 -6.34947e-011 0.707107   
     length 0.621157   
     axis -90 45 -3.84942e-014   XYZ
    dof rx rz
    limits (-45.0 45.0)
           (-45.0 45.0)
  end
  begin
     id 24 
     name rclavicle
     direction -0.955495 0.276497 -0.102848   
     length 3.36357  
     axis 0 0 0   XYZ 
    dof ry rz
    limits (-10.0 20.0)
           (-20.0 0.0)
  end
  begin
     id 25 
     name rhumerus
     direction -1 -4.48961e-011 3.30983e-027  
     length 5.23431   
     axis 180 30 90   XYZ
    dof rx ry rz
    limits (-90.0 60.0)
           (-90.0 90.0)
           (-90.0 90.0)
  end
  begin
     id 26 
     name rradius
     direction -1 -4.48965e-011 -6.63263e-027   
     length 3.55301   
     axis 180 30 90   XYZ
    dof rx
    limits (-10.0 170.0)
  end
  begin
     id 27 
     name rwrist
     direction -1 -4.48942e-011 -1.48958e-026   
     length 1.77651   
     axis 9.0955e-015 -90 -90   XYZ
    dof ry
    limits (-180.0 0.0)
  end
  begin
     id 28
     name rhand
     direction -1 -4.48977e-011 -2.97966e-026   
     length 0.772522   
     axis 1.90115e-014 -90 -90   XYZ
    dof rx rz
    limits (-90.0 90.0)
           (-45.0 45.0)
  end
  begin
     id 29
     name rfingers
     direction -1 -4.49135e-011 -5.96389e-026   
     length 0.622827   
     axis 3.80223e-014 -90 -90   XYZ
    dof rx
    limits (0.0 90.0)
  end
  begin
     id 30
     name rthumb
     direction -0.707107 -6.34969e-011 0.707107   
     length 0.894259   
     axis -90 -45 3.84942e-014   XYZ
    dof rx rz
    limits (-45.0 45.0)
           (-45.0 45.0)
  end
:hierarchy
  begin
    root lhipjoint rhipjoint lowerback
    lhipjoint lfemur
    lfemur ltibia
    ltibia lfoot
    lfoot ltoes
    rhipjoint rfemur
    rfemur rtibia
    rtibia rfoot
    rfoot rtoes
    lowerback upperback
    upperback thorax
    thorax lowerneck lclavicle rclavicle
    lowerneck upperneck
    upperneck head
    lclavicle lhumerus
    lhumerus lradius
    lradius lwrist
    lwrist lhand lthumb
    lhand lfingers
    rclavicle rhumerus
    rhumerus rradius
    rradius rwrist
    rwrist rhand rthumb
    rhand rfingers
  end

#!OML:ASF F:\VICON\USERDATA\INSTALL\rory3\rory3.ASF
:FULLY-SPECIFIED
:DEGREES
49
root -11.6618 17.7953 -9.06137 -0.194725 -5.67975 -4.15636
lowerback 10.9543 2.31255 2.66286
upperback 0.690278 3.47935 1.44075
thorax -5.34925 1.66417 -0.522992
lowerneck -22.3762 -5.52334 -11.2226
upperneck 27.9341 -6.60376 8.72521
head 13.9601 -2.88507 4.17678
rclavicle 4.70809e-014 -5.01931e-015
rhumerus -24.2305 -8.58557 -81.9211
rradius 34.6129
rwrist 1.7384
rhand -18.1092 9.19929
rfingers 7.12502
rthumb 8.16497 -20.623
lclavicle 4.70809e-014 -5.01931e-015
lhumerus -35.7865 4.449 85.3352
lradius 28.9984
lwrist -7.90727
lhand -17.6329 27.395
lfingers 7.12502
lthumb 8.62459 57.1988
rfemur 6.28035 0.552266 28.299
rtibia 18.758
rfoot -14.7655 -4.8658
rtoes -2.00176
lfemur -20.7833 -4.65163 -15.2879
ltibia 10.0541
lfoot -2.66258 10.9593
ltoes -12.3883
50
root -11.6514 17.7887 -8.91766 -0.139576 -5.787 -4.22664
lowerback 10.7551 2.34666 2.71843
upperback 0.688717 3.52292 1.42255
thorax -5.23393 1.68626 -0.570158
lowerneck -22.3553 -5.51554 -11.1809
upperneck 27.941 -6.61472 8.73451
head 13.9586 -2.8846 4.17175
rclavicle 6.05579e-014 1.92821e-014
rhumerus -23.9472 -8.69798 -81.9995
rradius 34.4075
rwrist 1.93611
rhand -18.1328 8.61221
rfingers 7.12502
rthumb 8.14221 -21.2109
lclavicle 6.05579e-014 1.92821e-014
lhumerus -35.8627 4.58242 85.3373
lradius 28.6928
lwrist -8.0084
lhand -18.1775 26.8908
lfingers 7.12502
lthumb 8.09907 56.7156
rfemur 6.78807 0.60922 28.2961
rtibia 18.6516
rfoot -14.6978 -4.8227
rtoes -2.29394
lfemur -20.3902 -4.31937 -15.4339
ltibia 8.36962
lfoot -2.649 11.5304
ltoes -12.9107
51
root -11.6357 17.7811 -8.77022 -0.099616 -5.9237 -4.11295
lowerback 10.481 2.41674 2.64215
upperback 0.706086 3.59082 1.32532
thorax -5.05888 1.72383 -0.625017
lowerneck -22.1254 -5.5215 -11.1301
upperneck 27.7361 -6.67377 8.78959
head 13.83 -2.90112 4.16834
rclavicle 5.91602e-014 4.91992e-015
rhumerus -23.6993 -8.92999 -82.0621
rradius 34.1728
rwrist 2.18519
rhand -18.139 8.73933
rfingers 7.12502
rthumb 8.13621 -21.084
lclavicle 5.91602e-014 4.91992e-015
lhumerus -35.8627 4.82367 85.2341
lradius 28.3144
lwrist -8.41237
lhand -18.1851 26.6701
lfingers 7.12502
lthumb 8.09169 56.4952
rfemur 7.28718 0.439053 27.9871
rtibia 18.6254
rfoot -14.7556 -4.54159
rtoes -2.8047
lfemur -19.9155 -3.96823 -15.7917
ltibia 6.84378
lfoot -2.62023 11.9124
ltoes -14.7275
52
root -11.6229 17.7743 -8.63195 -0.0562368 -5.94811 -3.99825
lowerback 10.4152 2.42988 2.47422
upperback 0.637531 3.5871 1.29759
thorax -5.10253 1.72457 -0.558388
lowerneck -22.0406 -5.48716 -11.1695
upperneck 27.7451 -6.62708 8.81381
head 13.8126 -2.88412 4.19501
rclavicle -1.6465e-014 1.61513e-015
rhumerus -23.6098 -8.96098 -82.0904
rradius 34.0369
rwrist 2.24457
rhand -18.0816 9.00404
rfingers 7.12502
rthumb 8.19157 -20.8172
lclavicle -1.6465e-014 1.61513e-015
lhumerus -36.075 5.10986 85.2064
lradius 28.1971
lwrist -8.69048
lhand -17.8737 26.864
lfingers 7.12502
lthumb 8.39222 56.6772
rfemur 7.70227 0.42154 27.7632
rtibia 18.6621
rfoot -14.71 -4.55851
rtoes -3.88397
lfemur -19.5035 -3.69277 -16.0539
ltibia 5.54062
lfoot -2.15729 12.1543
ltoes -16.6056
53
root -11.6137 17.766 -8.50253 0.0103683 -5.87349 -4.08814
lowerback 10.4989 2.42749 2.47303
upperback 0.499685 3.59244 1.32033
thorax -5.29566 1.7236 -0.542704
lowerneck -21.9829 -5.46286 -11.1559
upperneck 27.8328 -6.59496 8.76991
head 13.8311 -2.87673 4.18432
rclavicle -1.38606e-014 6.63444e-015
rhumerus -23.6257 -9.1581 -82.107
rradius 33.9071
rwrist 2.36851
rhand -17.9834 9.00247
rfingers 7.12502
rthumb 8.28634 -20.815
lclavicle -1.38606e-014 6.63444e-015
lhumerus -36.3722 5.14676 85.2523
lradius 28.1044
lwrist -8.67653
lhand -17.6743 26.8016
lfingers 7.12502
lthumb 8.58463 56.6071
rfemur 8.02525 0.640714 27.87
rtibia 18.7684
rfoot -14.5031 -4.71616
rtoes -4.10471
lfemur -19.0994 -3.48221 -16.0376
ltibia 4.40861
lfoot -1.51219 12.3505
ltoes -16.556
54
root -11.5978 17.7618 -8.36326 0.0227379 -5.78116 -4.15499
lowerback 10.4496 2.40022 2.57262
upperback 0.481793 3.56458 1.27974
thorax -5.27878 1.70723 -0.634591
lowerneck -22.0277 -5.4989 -11.1405
upperneck 27.899 -6.67235 8.82575
head 13.8808 -2.90054 4.19195
rclavicle 4.81424e-014 -1.08767e-015
rhumerus -23.5112 -9.40714 -82.2195
rradius 33.8114
rwrist 2.51449
rhand -17.7842 9.02417
rfingers 7.12502
rthumb 8.47864 -20.7856
lclavicle 4.81424e-014 -1.08767e-015
lhumerus -36.4835 5.45943 85.1165
lradius 27.8993
lwrist -9.09257
lhand -17.8061 26.6571
lfingers 7.12502
lthumb 8.45749 56.4677
rfemur 8.44671 0.78631 27.8892
rtibia 18.8809
rfoot -14.3065 -4.80904
rtoes -3.92523
lfemur -18.7822 -3.32283 -16.1164
ltibia 3.88611
lfoot -0.816265 12.4878
ltoes -14.7263
55
root -11.5765 17.7589 -8.21364 0.0226653 -5.76346 -4.12875
lowerback 10.2733 2.39053 2.59935
upperback 0.516726 3.54565 1.24714
thorax -5.14011 1.69963 -0.671245
lowerneck -22.1686 -5.5236 -11.2019
upperneck 27.9642 -6.70817 8.92858
head 13.9507 -2.90602 4.23977
rclavicle 3.63648e-014 -1.42628e-014
rhumerus -23.3867 -9.45228 -82.2892
rradius 33.7904
rwrist 2.5564
rhand -17.7821 8.86278
rfingers 7.12502
rthumb 8.48062 -20.9469
lclavicle 3.63648e-014 -1.42628e-014
lhumerus -36.4821 5.97403 84.9809
lradius 27.6062
lwrist -9.60536
lhand -17.8719 26.6759
lfingers 7.12502
lthumb 8.39394 56.4891
rfemur 8.93309 0.912892 27.7363
rtibia 18.9486
rfoot -14.0336 -4.76417
rtoes -4.2795
lfemur -18.8973 -3.12373 -16.3798
ltibia 4.53131
lfoot -0.255489 12.6148
ltoes -12.6533
56
root -11.5596 17.7548 -8.06208 0.000304098 -5.81502 -4.18866
lowerback 10.183 2.4259 2.6294
upperback 0.481342 3.59471 1.25918
thorax -5.12433 1.72342 -0.678974
lowerneck -22.1315 -5.52317 -11.2085
upperneck 28.0167 -6.7181 8.94256
head 13.9676 -2.91048 4.24699
rclavicle 1.59463e-014 -4.8081e-015
rhumerus -23.5225 -9.63117 -82.3046
rradius 33.8544
rwrist 2.70121
rhand -17.7683 8.69953
rfingers 7.12502
rthumb 8.49399 -21.1096
lclavicle 1.59463e-014 -4.8081e-015
lhumerus -36.6615 6.29265 84.9047
lradius 27.4411
lwrist -10.007
lhand -18.0334 26.8108
lfingers 7.12502
lthumb 8.23806 56.6302
rfemur 9.40601 1.02494 27.6719
rtibia 19.0409
rfoot -13.774 -4.70057
rtoes -4.62298
lfemur -19.1763 -2.85514 -16.5492
ltibia 5.77896
lfoot -0.126055 12.9
ltoes -11.8106
57
root -11.5486 17.7529 -7.91015 -0.120061 -5.95084 -4.34152
lowerback 10.254 2.4806 2.66558
upperback 0.411059 3.67944 1.31212
thorax -5.23698 1.76251 -0.661505
lowerneck -21.9294 -5.49771 -11.2351
upperneck 28.0798 -6.69195 8.92171
head 13.9486 -2.91043 4.25159
rclavicle 2.5738e-014 1.46976e-014
rhumerus -23.7907 -9.78841 -82.3199
rradius 33.9091
rwrist 2.82507
rhand -17.7154 8.79313
rfingers 7.12502
rthumb 8.54496 -21.014
lclavicle 2.5738e-014 1.46976e-014
lhumerus -36.9451 6.46084 84.8716
lradius 27.3356
lwrist -10.0903
lhand -18.1768 27.148
lfingers 7.12502
lthumb 8.0997 56.9728
rfemur 9.91716 1.34796 27.7983
rtibia 19.2178
rfoot -13.2681 -4.76436
rtoes -3.90256
lfemur -19.3021 -2.50571 -16.5932
ltibia 7.10696
lfoot -0.506998 13.3456
ltoes -10.1757
58
root -11.5355 17.7508 -7.75592 -0.268868 -6.03759 -4.43934
lowerback 10.2692 2.52416 2.70384
upperback 0.4247 3.74169 1.3079
thorax -5.22675 1.79243 -0.696385
lowerneck -21.8832 -5.48698 -11.1469
upperneck 28.0962 -6.70577 8.88952
head 13.9421 -2.91234 4.22129
rclavicle -5.87316e-014 -2.03754e-014
rhumerus -23.9299 -9.95383 -82.3953
rradius 33.8905
rwrist 2.71836
rhand -17.7839 8.96414
rfingers 7.12502
rthumb 8.47886 -20.8456
lclavicle -5.87316e-014 -2.03754e-014
lhumerus -37.0663 6.44472 84.8723
lradius 27.2139
lwrist -9.99258
lhand -18.0682 27.7116
lfingers 7.12502
lthumb 8.20453 57.5323
rfemur 10.4579 1.57414 27.8528
rtibia 19.5002
rfoot -12.5236 -4.74693
rtoes -2.96686
lfemur -19.2986 -2.20463 -16.7161
ltibia 8.341
lfoot -0.781268 13.7224
ltoes -8.24614
